<?xml version="1.0" standalone="no"?><svg xmlns="http://www.w3.org/2000/svg" viewBox="0 0 1440 320"><path fill="#328db3" fill-opacity="1" d="M0,288L40,282.7C80,277,160,267,240,261.3C320,256,400,256,480,234.7C560,213,640,171,720,176C800,181,880,235,960,234.7C1040,235,1120,181,1200,138.7C1280,96,1360,64,1400,48L1440,32L1440,320L1400,320C1360,320,1280,320,1200,320C1120,320,1040,320,960,320C880,320,800,320,720,320C640,320,560,320,480,320C400,320,320,320,240,320C160,320,80,320,40,320L0,320Z"></path></svg>