<?xml version="1.0" standalone="no"?><svg xmlns="http://www.w3.org/2000/svg" viewBox="0 0 1440 320"><path fill="#9dc2d1" fill-opacity="1" d="M0,0L40,48C80,96,160,192,240,229.3C320,267,400,245,480,234.7C560,224,640,224,720,213.3C800,203,880,181,960,165.3C1040,149,1120,139,1200,160C1280,181,1360,235,1400,261.3L1440,288L1440,320L1400,320C1360,320,1280,320,1200,320C1120,320,1040,320,960,320C880,320,800,320,720,320C640,320,560,320,480,320C400,320,320,320,240,320C160,320,80,320,40,320L0,320Z"></path></svg>